<svg width="360" height="45" viewBox="0 0 360 45" fill="none" xmlns="http://www.w3.org/2000/svg">
<g clip-path="url(#clip0_3721_101113)">
<path d="M42.898 26.826C43.2208 27.0879 43.5903 27.3265 44.0067 27.537C44.4231 27.7476 44.8488 27.93 45.2792 28.075C45.7096 28.2201 46.14 28.337 46.561 28.4165C46.982 28.4961 47.3797 28.5382 47.7446 28.5382C48.6381 28.5382 49.3352 28.351 49.8404 27.9768C50.3457 27.6025 50.5983 27.0458 50.5983 26.2973C50.5983 25.7266 50.4626 25.2447 50.1913 24.8517C49.92 24.4588 49.4194 24.0752 48.6896 23.7103C48.2685 23.4904 47.8615 23.2939 47.4826 23.1161C47.1037 22.943 46.7388 22.7559 46.3879 22.5688C46.037 22.377 45.6955 22.1758 45.3681 21.9653C45.0406 21.7548 44.7131 21.5162 44.3903 21.2542C43.8196 20.7443 43.3518 20.1689 42.9869 19.5326C42.622 18.8964 42.4395 18.1151 42.4395 17.1982C42.4395 16.5713 42.5658 15.9866 42.8231 15.4532C43.0804 14.9199 43.45 14.4615 43.9319 14.0825C44.4137 13.7036 45.0032 13.4089 45.6955 13.1937C46.3879 12.9831 47.1785 12.8755 48.0534 12.8755C49.9527 12.8755 51.6415 13.1983 53.1198 13.8393V16.5386C53.1198 16.7444 53.045 16.8707 52.9 16.9222C52.7549 16.9737 52.6006 16.9316 52.4415 16.8006C51.2439 15.7901 49.9246 15.2848 48.4931 15.2848C47.7025 15.2848 47.099 15.4532 46.6826 15.7901C46.2663 16.1269 46.0558 16.5947 46.0558 17.1935C46.0558 17.6192 46.1306 17.9841 46.2756 18.2882C46.4207 18.597 46.6405 18.8683 46.9353 19.1022C47.492 19.556 48.0861 19.949 48.7223 20.2858C49.3586 20.6227 49.9854 20.9361 50.5983 21.2308C51.169 21.4928 51.6743 21.7782 52.1234 22.0869C52.5678 22.3957 52.9514 22.7466 53.2649 23.1395C53.5783 23.5325 53.8169 23.9863 53.9806 24.4868C54.1397 24.9921 54.2192 25.5815 54.2192 26.2552C54.2192 27.0879 54.0555 27.8037 53.7233 28.3931C53.3959 28.9873 52.9374 29.4738 52.3526 29.8621C51.7678 30.2504 51.0848 30.5311 50.3036 30.7089C49.5223 30.882 48.6849 30.9708 47.7914 30.9708C47.1317 30.9708 46.4487 30.896 45.7423 30.751C45.0312 30.6059 44.3997 30.4188 43.843 30.1896C43.2863 29.965 42.8465 29.7124 42.5284 29.4317C42.2056 29.1557 42.1027 28.875 42.2243 28.599L42.9027 26.8213L42.898 26.826Z" fill="#0046FF"/>
<path d="M59.9223 13.1046V19.2237C60.3901 18.8307 60.9094 18.5173 61.4802 18.2927C62.0509 18.0635 62.6871 17.9512 63.3889 17.9512C64.0906 17.9512 64.7034 18.0448 65.2648 18.2366C65.8262 18.4284 66.3081 18.6951 66.7151 19.0366C67.1174 19.3828 67.4262 19.7944 67.646 20.2763C67.8659 20.7582 67.9735 21.2915 67.9735 21.8762V30.6947H64.5303V22.3441C64.5303 21.1324 63.866 20.5242 62.5328 20.5242C62.079 20.5242 61.6392 20.6131 61.2182 20.7909C60.7925 20.9687 60.3621 21.2166 59.9223 21.5301V30.6993H56.4792V15.2987C56.4792 14.9198 56.4417 14.6204 56.3669 14.4005C56.292 14.1806 56.147 13.956 55.9271 13.7221C55.7961 13.5631 55.7634 13.4181 55.8289 13.2964C55.8944 13.1701 56.0067 13.1093 56.1704 13.1093H59.9223V13.1046Z" fill="#0046FF"/>
<path d="M74.4429 18.3723V30.6994H70.9997V20.543C70.9997 20.1921 70.9576 19.9067 70.8781 19.6869C70.7986 19.467 70.6535 19.2424 70.4524 19.0085C70.3214 18.8495 70.284 18.6998 70.3448 18.5688C70.4009 18.4378 70.5132 18.3723 70.6723 18.3723H74.4429V18.3723ZM74.5739 14.466C74.5739 15.0648 74.3821 15.5607 73.9938 15.9583C73.6055 16.3513 73.1049 16.5525 72.4921 16.5525C71.8792 16.5525 71.3787 16.356 70.9904 15.9583C70.6021 15.5654 70.4103 15.0648 70.4103 14.466C70.4103 13.8672 70.6021 13.3713 70.9904 12.9736C71.3787 12.5807 71.8792 12.3795 72.4921 12.3795C73.1049 12.3795 73.6055 12.576 73.9938 12.9736C74.3821 13.3666 74.5739 13.8672 74.5739 14.466Z" fill="#0046FF"/>
<path d="M80.9132 18.3721V19.5791C81.367 19.1393 81.8723 18.7604 82.4383 18.4376C82.9997 18.1148 83.6687 17.9557 84.4453 17.9557C85.1049 17.9557 85.7131 18.0493 86.2651 18.2318C86.8218 18.4142 87.3083 18.6809 87.7247 19.0317C88.1411 19.3826 88.4685 19.8177 88.7024 20.337C88.9364 20.8562 89.0533 21.4504 89.0533 22.124V30.7039H85.6101V22.4281C85.6101 21.7264 85.4511 21.2165 85.1377 20.903C84.8242 20.5896 84.3143 20.4305 83.6126 20.4305C83.1307 20.4305 82.6769 20.5241 82.2512 20.7159C81.8255 20.9077 81.4185 21.179 81.0208 21.5252V30.6945H77.5777V20.5896C77.5777 20.2106 77.5356 19.9112 77.456 19.6914C77.3765 19.4715 77.2315 19.2469 77.0303 19.013C76.8853 18.854 76.8432 18.7043 76.9087 18.5733C76.9742 18.4423 77.0865 18.3768 77.2502 18.3768H80.9132V18.3721Z" fill="#0046FF"/>
<path d="M95.415 13.1046V19.2237C95.8828 18.8307 96.4021 18.5173 96.9728 18.2927C97.5436 18.0635 98.1798 17.9512 98.8815 17.9512C99.5833 17.9512 100.196 18.0448 100.758 18.2366C101.319 18.4284 101.801 18.6951 102.208 19.0366C102.61 19.3828 102.919 19.7944 103.139 20.2763C103.359 20.7582 103.466 21.2915 103.466 21.8762V30.6947H100.023V22.3441C100.023 21.1324 99.3587 20.5242 98.0254 20.5242C97.5716 20.5242 97.1319 20.6131 96.7109 20.7909C96.2898 20.9687 95.8547 21.2166 95.415 21.5301V30.6993H91.9718V15.2987C91.9718 14.9198 91.9344 14.6204 91.8596 14.4005C91.7847 14.1806 91.6397 13.956 91.4198 13.7221C91.2888 13.5631 91.2561 13.4181 91.3216 13.2964C91.3871 13.1701 91.4993 13.1093 91.6631 13.1093H95.415V13.1046Z" fill="#0046FF"/>
<path d="M111.275 20.2574C110.601 20.2574 109.937 20.3837 109.277 20.641C108.622 20.8983 108.042 21.1837 107.546 21.5065C107.298 21.6656 107.106 21.7123 106.975 21.6375C106.844 21.5626 106.779 21.4036 106.779 21.1556V18.868C107.438 18.5779 108.201 18.3534 109.071 18.1943C109.941 18.0353 110.751 17.9557 111.494 17.9557C113.207 17.9557 114.526 18.2832 115.452 18.9428C116.379 19.6025 116.846 20.6176 116.846 21.993V30.7039H113.469V29.3659C112.987 29.9647 112.416 30.4044 111.756 30.6805C111.102 30.9565 110.395 31.0968 109.651 31.0968C109.038 31.0968 108.472 31.0033 107.962 30.8114C107.448 30.6196 107.013 30.353 106.657 30.0115C106.297 29.67 106.016 29.2583 105.81 28.7858C105.605 28.3086 105.502 27.78 105.502 27.1952C105.502 25.8806 105.965 24.8374 106.896 24.0702C107.822 23.3029 109.254 22.9193 111.186 22.9193H113.403V21.9884C113.403 21.3708 113.221 20.9264 112.856 20.6598C112.491 20.3931 111.962 20.2621 111.275 20.2621V20.2574ZM113.403 25.2163H111.167C110.32 25.2163 109.717 25.3894 109.357 25.7403C108.996 26.0911 108.819 26.5543 108.819 27.1344C108.819 27.6162 108.954 28.0045 109.226 28.2993C109.497 28.5987 109.885 28.7484 110.4 28.7484C110.999 28.7484 111.555 28.6221 112.065 28.3647C112.575 28.1074 113.024 27.7613 113.403 27.3215V25.2163Z" fill="#0046FF"/>
<path d="M123.055 18.3721V19.5791C123.508 19.1393 124.014 18.7604 124.58 18.4376C125.146 18.1148 125.81 17.9557 126.587 17.9557C127.246 17.9557 127.854 18.0493 128.406 18.2318C128.963 18.4142 129.45 18.6809 129.866 19.0317C130.282 19.3826 130.61 19.8177 130.844 20.337C131.078 20.8562 131.195 21.4504 131.195 22.124V30.7039H127.752V22.4281C127.752 21.7264 127.592 21.2165 127.279 20.903C126.966 20.5896 126.456 20.4305 125.754 20.4305C125.272 20.4305 124.818 20.5241 124.393 20.7159C123.967 20.9077 123.56 21.179 123.162 21.5252V30.6945H119.719V20.5896C119.719 20.2106 119.677 19.9112 119.597 19.6914C119.518 19.4715 119.373 19.2469 119.172 19.013C119.027 18.854 118.985 18.7043 119.05 18.5733C119.116 18.4423 119.228 18.3768 119.392 18.3768H123.055V18.3721Z" fill="#0046FF"/>
<path d="M142.764 16.3749C142.942 15.9071 143.016 15.5141 142.993 15.2007C142.97 14.8872 142.895 14.6065 142.764 14.3539C142.455 13.844 142.595 13.5867 143.18 13.5867H146.45L153.032 30.6995H149.458L147.727 25.9371H142.418L140.705 30.6995H137.15L142.764 16.3749V16.3749ZM143.334 23.3267H146.778L145.047 18.4146L143.334 23.3267Z" fill="#0046FF"/>
<path d="M154.52 27.6724C154.782 27.8501 155.086 27.9999 155.433 28.1355C155.774 28.2665 156.125 28.3788 156.485 28.463C156.845 28.5519 157.196 28.6174 157.538 28.6595C157.879 28.7016 158.179 28.725 158.427 28.725C159.521 28.725 160.073 28.3507 160.073 27.6069C160.073 27.3168 159.98 27.0689 159.797 26.8724C159.615 26.6759 159.269 26.4467 158.754 26.18C158.169 25.8853 157.613 25.5859 157.089 25.2678C156.56 24.9543 156.041 24.5848 155.531 24.159C155.194 23.869 154.895 23.5275 154.633 23.1392C154.371 22.7509 154.24 22.2269 154.24 21.572C154.24 21.0901 154.338 20.6317 154.534 20.2013C154.731 19.7709 155.026 19.3873 155.414 19.0504C155.802 18.7136 156.275 18.447 156.831 18.2505C157.388 18.054 158.024 17.9557 158.74 17.9557C159.049 17.9557 159.372 17.9745 159.718 18.0119C160.059 18.0493 160.41 18.1008 160.761 18.1663C161.112 18.2318 161.453 18.3066 161.79 18.3955C162.127 18.4844 162.436 18.5873 162.712 18.7043V21.1182C162.712 21.3521 162.642 21.4925 162.501 21.5346C162.361 21.5767 162.193 21.5205 161.987 21.3615C161.561 21.0714 161.084 20.8282 160.551 20.6364C160.017 20.4446 159.489 20.351 158.96 20.351C158.506 20.351 158.16 20.4586 157.917 20.6785C157.673 20.8983 157.556 21.1744 157.556 21.5112C157.556 21.9369 157.795 22.3299 158.282 22.6948C158.455 22.8258 158.661 22.9661 158.894 23.1111C159.128 23.2562 159.372 23.4059 159.629 23.5509C159.886 23.6959 160.139 23.8363 160.387 23.9672C160.635 24.0982 160.864 24.2245 161.065 24.3415C161.458 24.5614 161.809 24.7766 162.108 24.9871C162.408 25.1976 162.651 25.4362 162.843 25.6982C163.035 25.9602 163.175 26.2596 163.269 26.5964C163.362 26.9332 163.409 27.3262 163.409 27.78C163.409 28.7764 162.988 29.5764 162.146 30.1799C161.304 30.7881 160.148 31.0921 158.67 31.0921C158.113 31.0921 157.542 31.0407 156.958 30.9378C156.373 30.8348 155.849 30.7039 155.39 30.5448C154.932 30.3857 154.558 30.2033 154.282 29.9974C154.006 29.7916 153.903 29.5904 153.973 29.3846L154.52 27.6724V27.6724Z" fill="#0046FF"/>
<path d="M165.424 27.6724C165.686 27.8501 165.99 27.9999 166.337 28.1355C166.678 28.2665 167.029 28.3788 167.389 28.463C167.749 28.5519 168.1 28.6174 168.442 28.6595C168.783 28.7016 169.083 28.725 169.331 28.725C170.425 28.725 170.977 28.3507 170.977 27.6069C170.977 27.3168 170.884 27.0689 170.701 26.8724C170.519 26.6759 170.173 26.4467 169.658 26.18C169.073 25.8853 168.517 25.5859 167.993 25.2678C167.464 24.9543 166.945 24.5848 166.435 24.159C166.098 23.869 165.799 23.5275 165.537 23.1392C165.275 22.7509 165.144 22.2269 165.144 21.572C165.144 21.0901 165.242 20.6317 165.438 20.2013C165.635 19.7709 165.93 19.3873 166.318 19.0504C166.706 18.7136 167.179 18.447 167.735 18.2505C168.292 18.054 168.928 17.9557 169.644 17.9557C169.953 17.9557 170.276 17.9745 170.622 18.0119C170.963 18.0493 171.314 18.1008 171.665 18.1663C172.016 18.2318 172.357 18.3066 172.694 18.3955C173.031 18.4844 173.34 18.5873 173.616 18.7043V21.1182C173.616 21.3521 173.546 21.4925 173.405 21.5346C173.265 21.5767 173.097 21.5205 172.891 21.3615C172.465 21.0714 171.988 20.8282 171.455 20.6364C170.921 20.4446 170.393 20.351 169.864 20.351C169.41 20.351 169.064 20.4586 168.821 20.6785C168.578 20.8983 168.461 21.1744 168.461 21.5112C168.461 21.9369 168.699 22.3299 169.186 22.6948C169.359 22.8258 169.565 22.9661 169.799 23.1111C170.032 23.2562 170.276 23.4059 170.533 23.5509C170.79 23.6959 171.043 23.8363 171.291 23.9672C171.539 24.0982 171.768 24.2245 171.969 24.3415C172.362 24.5614 172.713 24.7766 173.012 24.9871C173.312 25.1976 173.555 25.4362 173.747 25.6982C173.939 25.9602 174.079 26.2596 174.173 26.5964C174.266 26.9332 174.313 27.3262 174.313 27.78C174.313 28.7764 173.892 29.5764 173.05 30.1799C172.208 30.7881 171.052 31.0921 169.574 31.0921C169.017 31.0921 168.447 31.0407 167.862 30.9378C167.277 30.8348 166.753 30.7039 166.295 30.5448C165.836 30.3857 165.462 30.2033 165.186 29.9974C164.91 29.7916 164.807 29.5904 164.877 29.3846L165.424 27.6724V27.6724Z" fill="#0046FF"/>
<path d="M179.31 25.4129C179.384 26.559 179.703 27.4058 180.273 27.9391C180.844 28.4771 181.653 28.7438 182.706 28.7438C183.291 28.7438 183.89 28.6829 184.507 28.5566C185.12 28.4303 185.737 28.1871 186.35 27.8222L186.874 29.3145C186.935 29.5203 186.851 29.7262 186.622 29.9414C186.392 30.1519 186.06 30.3437 185.625 30.5121C185.185 30.6805 184.666 30.8209 184.067 30.9285C183.468 31.0361 182.837 31.0922 182.182 31.0922C181.335 31.0922 180.526 30.9659 179.759 30.718C178.991 30.47 178.318 30.0817 177.742 29.5531C177.167 29.0245 176.704 28.3555 176.358 27.5368C176.016 26.7181 175.843 25.731 175.843 24.5755C175.843 23.7568 175.965 22.9521 176.203 22.1615C176.447 21.3709 176.816 20.6645 177.321 20.033C177.827 19.4061 178.463 18.9008 179.23 18.5172C179.997 18.1383 180.9 17.9465 181.939 17.9465C182.874 17.9465 183.702 18.1149 184.418 18.4517C185.134 18.7885 185.742 19.2517 186.238 19.8365C186.734 20.4212 187.113 21.1183 187.365 21.9136C187.623 22.7136 187.749 23.5697 187.749 24.4772V25.4035H179.3L179.31 25.4129ZM184.292 23.1112C184.264 22.7463 184.198 22.3908 184.105 22.0493C184.011 21.7077 183.871 21.4083 183.688 21.1604C183.506 20.9125 183.272 20.7113 182.987 20.5569C182.701 20.4025 182.355 20.3277 181.943 20.3277C181.532 20.3277 181.167 20.4025 180.849 20.5569C180.526 20.7113 180.255 20.9171 180.039 21.1838C179.819 21.4458 179.646 21.7452 179.525 22.082C179.398 22.4188 179.333 22.7603 179.314 23.1112H184.297H184.292Z" fill="#0046FF"/>
<path d="M194.425 14.4472V18.3722H197.321V20.7862H194.425V27.6959C194.425 28.1216 194.537 28.3882 194.752 28.5052C194.972 28.6222 195.23 28.683 195.52 28.683C195.81 28.683 196.132 28.6268 196.474 28.5192C196.82 28.407 197.157 28.276 197.494 28.1122L197.887 29.9133C197.929 30.1051 197.812 30.2736 197.536 30.4279C197.26 30.5823 196.904 30.718 196.483 30.8349C196.146 30.9238 195.805 30.9893 195.463 31.0314C195.122 31.0735 194.72 31.0969 194.271 31.0969C193.307 31.0969 192.516 30.8583 191.899 30.3858C191.286 29.9087 190.977 29.1929 190.977 28.2245V20.7862H188.895V18.3722H190.977V14.4472H194.42H194.425Z" fill="#0046FF"/>
<path d="M215.257 29.9557H212.492L208.937 20.0613L208.324 18.1759L208.389 20.1923V30.6995H204.965V15.5655C204.951 15.2755 204.904 15.0275 204.825 14.831C204.745 14.6345 204.609 14.4334 204.418 14.2275C204.287 14.0685 204.249 13.9188 204.305 13.7878C204.366 13.6568 204.474 13.5913 204.633 13.5913H209.372L213.868 25.9184L218.363 13.5913H222.775V30.6995H219.355V20.1923L219.421 18.1759L218.808 20.0613L215.252 29.9557H215.257Z" fill="#0046FF"/>
<path d="M230.92 20.2574C230.246 20.2574 229.582 20.3837 228.922 20.641C228.267 20.8983 227.687 21.1837 227.191 21.5065C226.943 21.6656 226.751 21.7123 226.62 21.6375C226.489 21.5626 226.424 21.4036 226.424 21.1556V18.868C227.083 18.5779 227.846 18.3534 228.716 18.1943C229.586 18.0353 230.396 17.9557 231.139 17.9557C232.852 17.9557 234.171 18.2832 235.097 18.9428C236.024 19.6025 236.491 20.6176 236.491 21.993V30.7039H233.114V29.3659C232.632 29.9647 232.061 30.4044 231.401 30.6805C230.746 30.9565 230.04 31.0968 229.296 31.0968C228.683 31.0968 228.117 31.0033 227.607 30.8114C227.093 30.6196 226.658 30.353 226.302 30.0115C225.942 29.67 225.661 29.2583 225.455 28.7811C225.25 28.3039 225.151 27.7753 225.151 27.1905C225.151 25.8759 225.615 24.8327 226.545 24.0655C227.472 23.2983 228.903 22.9146 230.835 22.9146H233.053V21.9837C233.053 21.3662 232.87 20.9217 232.506 20.6551C232.141 20.3884 231.612 20.2574 230.924 20.2574H230.92ZM233.048 25.2163H230.812C229.965 25.2163 229.362 25.3894 229.002 25.7403C228.641 26.0911 228.464 26.5543 228.464 27.1344C228.464 27.6162 228.599 28.0045 228.871 28.2993C229.142 28.5987 229.53 28.7484 230.045 28.7484C230.644 28.7484 231.2 28.6221 231.71 28.3647C232.22 28.1074 232.669 27.7613 233.048 27.3215V25.2163V25.2163Z" fill="#0046FF"/>
<path d="M242.699 18.3721V19.5791C243.153 19.1393 243.658 18.7604 244.224 18.4376C244.786 18.1148 245.455 17.9557 246.231 17.9557C246.891 17.9557 247.499 18.0493 248.051 18.2318C248.608 18.4142 249.094 18.6809 249.511 19.0317C249.927 19.3826 250.254 19.8177 250.488 20.337C250.722 20.8562 250.839 21.4504 250.839 22.124V30.7039H247.396V22.4281C247.396 21.7264 247.237 21.2165 246.924 20.903C246.61 20.5896 246.1 20.4305 245.398 20.4305C244.917 20.4305 244.463 20.5241 244.037 20.7159C243.611 20.9077 243.204 21.179 242.807 21.5252V30.6945H239.364V20.5896C239.364 20.2106 239.321 19.9112 239.242 19.6914C239.162 19.4715 239.017 19.2469 238.816 19.013C238.671 18.854 238.629 18.7043 238.695 18.5733C238.76 18.4423 238.872 18.3768 239.036 18.3768H242.699V18.3721Z" fill="#0046FF"/>
<path d="M258.647 20.2574C257.973 20.2574 257.309 20.3837 256.649 20.641C255.994 20.8983 255.414 21.1837 254.918 21.5065C254.67 21.6656 254.479 21.7123 254.348 21.6375C254.217 21.5626 254.151 21.4036 254.151 21.1556V18.868C254.811 18.5779 255.573 18.3534 256.443 18.1943C257.314 18.0353 258.123 17.9557 258.867 17.9557C260.579 17.9557 261.898 18.2832 262.825 18.9428C263.751 19.6025 264.219 20.6176 264.219 21.993V30.7039H260.841V29.3659C260.359 29.9647 259.788 30.4044 259.129 30.6805C258.474 30.9565 257.767 31.0968 257.024 31.0968C256.411 31.0968 255.845 31.0033 255.335 30.8114C254.82 30.6196 254.385 30.353 254.03 30.0115C253.669 29.67 253.389 29.2583 253.183 28.7811C252.977 28.3039 252.874 27.7753 252.874 27.1905C252.874 25.8759 253.337 24.8327 254.268 24.0655C255.194 23.2983 256.626 22.9146 258.558 22.9146H260.776V21.9837C260.776 21.3662 260.593 20.9217 260.228 20.6551C259.863 20.3884 259.335 20.2574 258.647 20.2574V20.2574ZM260.776 25.2163H258.539C257.693 25.2163 257.089 25.3894 256.729 25.7403C256.369 26.0911 256.191 26.5543 256.191 27.1344C256.191 27.6162 256.327 28.0045 256.598 28.2993C256.869 28.5987 257.258 28.7484 257.772 28.7484C258.371 28.7484 258.928 28.6221 259.438 28.3647C259.947 28.1074 260.397 27.7613 260.776 27.3215V25.2163Z" fill="#0046FF"/>
<path d="M278.151 22.6346C278.151 23.2802 278.029 23.8837 277.777 24.4497C277.529 25.0158 277.159 25.5117 276.668 25.9374C276.177 26.3631 275.578 26.6953 274.867 26.9386C274.156 27.1818 273.342 27.3035 272.42 27.3035C271.793 27.3035 271.241 27.252 270.773 27.1491C270.38 27.6122 270.179 28.0613 270.179 28.4964C270.179 28.8285 270.268 29.0812 270.455 29.2589C270.638 29.432 270.942 29.5209 271.368 29.5209H273.824C274.614 29.5209 275.344 29.6098 276.018 29.7829C276.691 29.9607 277.271 30.2133 277.763 30.5501C278.254 30.887 278.633 31.308 278.904 31.8132C279.175 32.3185 279.311 32.9079 279.311 33.5769C279.311 34.9944 278.745 36.0751 277.613 36.8142C276.481 37.5534 274.839 37.923 272.687 37.923C270.535 37.923 268.785 37.5487 267.653 36.8049C266.521 36.0564 265.955 35.0552 265.955 33.8015C265.955 33.0717 266.142 32.4401 266.512 31.9162C266.886 31.3875 267.372 30.9431 267.971 30.5782C267.428 30.0823 267.162 29.4461 267.162 28.6695C267.162 28.1736 267.283 27.7105 267.522 27.2754C267.761 26.845 268.116 26.5035 268.584 26.2555C267.971 25.8158 267.503 25.2871 267.181 24.6649C266.858 24.0427 266.699 23.3691 266.699 22.6346C266.699 21.9937 266.825 21.3855 267.082 20.8148C267.34 20.244 267.709 19.7482 268.191 19.3224C268.673 18.8967 269.267 18.5646 269.978 18.326C270.689 18.0827 271.503 17.9658 272.425 17.9658C273.127 17.9658 273.763 18.0359 274.333 18.1763C274.904 18.3166 275.409 18.5084 275.849 18.7564C276.228 18.5973 276.645 18.471 277.098 18.3821C277.552 18.2932 277.926 18.2511 278.216 18.2511C278.553 18.2511 278.853 18.2605 279.115 18.2839C279.377 18.3073 279.653 18.3541 279.947 18.4242V20.6183C279.947 20.7353 279.91 20.8241 279.826 20.8803C279.746 20.9364 279.625 20.9317 279.465 20.8569C279.274 20.782 279.087 20.7259 278.895 20.6838C278.703 20.6417 278.502 20.6183 278.282 20.6183C278.179 20.6183 278.081 20.6183 277.987 20.6277C277.894 20.637 277.8 20.6464 277.716 20.6604C277.875 20.9551 277.987 21.2686 278.057 21.6054C278.123 21.9422 278.156 22.2884 278.156 22.6393L278.151 22.6346ZM269.398 33.6939C269.398 33.998 269.454 34.2693 269.562 34.5032C269.674 34.7371 269.856 34.9336 270.109 35.102C270.366 35.2704 270.703 35.3967 271.129 35.4856C271.555 35.5745 272.074 35.6166 272.687 35.6166C273.3 35.6166 273.814 35.5698 274.221 35.4763C274.633 35.3827 274.956 35.247 275.199 35.0739C275.438 34.9009 275.611 34.6857 275.714 34.4284C275.816 34.1757 275.868 33.895 275.868 33.5863C275.868 33.0343 275.723 32.5851 275.428 32.2436C275.138 31.9021 274.567 31.729 273.716 31.729H271.368C271.162 31.729 270.965 31.7197 270.773 31.7056C270.582 31.6916 270.399 31.6682 270.226 31.6401C269.917 31.9583 269.702 32.2998 269.576 32.6647C269.454 33.0296 269.389 33.3711 269.389 33.6892L269.398 33.6939ZM274.708 22.6393C274.708 21.8955 274.516 21.3154 274.128 20.8943C273.739 20.4733 273.173 20.2628 272.429 20.2628C271.686 20.2628 271.12 20.4733 270.731 20.8943C270.343 21.3154 270.151 21.9001 270.151 22.6393C270.151 23.3784 270.343 23.9585 270.731 24.3749C271.12 24.7913 271.686 24.9971 272.429 24.9971C273.173 24.9971 273.744 24.7913 274.128 24.3749C274.516 23.9585 274.708 23.3831 274.708 22.6393V22.6393Z" fill="#0046FF"/>
<path d="M284.354 25.4129C284.429 26.559 284.747 27.4058 285.318 27.9391C285.888 28.4771 286.698 28.7438 287.75 28.7438C288.335 28.7438 288.934 28.6829 289.551 28.5566C290.164 28.4303 290.782 28.1871 291.395 27.8222L291.919 29.3145C291.979 29.5203 291.895 29.7262 291.666 29.9414C291.437 30.1519 291.105 30.3437 290.67 30.5121C290.23 30.6805 289.711 30.8209 289.112 30.9285C288.513 31.0361 287.881 31.0922 287.226 31.0922C286.38 31.0922 285.57 30.9659 284.803 30.718C284.036 30.47 283.362 30.0817 282.787 29.5531C282.211 29.0245 281.748 28.3555 281.402 27.5368C281.061 26.7181 280.887 25.731 280.887 24.5755C280.887 23.7568 281.009 22.9521 281.248 22.1615C281.491 21.3709 281.861 20.6645 282.366 20.033C282.871 19.4061 283.507 18.9008 284.274 18.5172C285.042 18.1383 285.945 17.9465 286.983 17.9465C287.919 17.9465 288.747 18.1149 289.463 18.4517C290.178 18.7885 290.787 19.2517 291.282 19.8365C291.778 20.4212 292.157 21.1183 292.41 21.9136C292.667 22.7136 292.793 23.5697 292.793 24.4772V25.4035H284.345L284.354 25.4129ZM289.336 23.1112C289.308 22.7463 289.243 22.3908 289.149 22.0493C289.056 21.7077 288.915 21.4083 288.733 21.1604C288.55 20.9125 288.316 20.7113 288.031 20.5569C287.746 20.4025 287.399 20.3277 286.988 20.3277C286.576 20.3277 286.211 20.4025 285.893 20.5569C285.57 20.7113 285.299 20.9171 285.084 21.1838C284.864 21.4458 284.691 21.7452 284.569 22.082C284.443 22.4188 284.377 22.7603 284.359 23.1112H289.341H289.336Z" fill="#0046FF"/>
<path d="M301.523 17.9557C302.295 17.9557 302.95 18.0914 303.474 18.3628C303.998 18.6341 304.423 19.0037 304.746 19.4715C305.317 19.0037 305.906 18.6341 306.524 18.3628C307.137 18.0914 307.782 17.9557 308.456 17.9557C309.789 17.9557 310.8 18.3019 311.492 18.985C312.185 19.6726 312.535 20.6364 312.535 21.8808V30.6992H309.092V22.1474C309.092 21.5907 308.999 21.1697 308.816 20.8749C308.634 20.5849 308.264 20.4352 307.708 20.4352C307.048 20.4352 306.276 20.7954 305.382 21.5112V30.7039H301.981V22.1474C301.981 21.5907 301.897 21.1697 301.729 20.8749C301.56 20.5849 301.2 20.4352 300.643 20.4352C300.25 20.4352 299.853 20.5428 299.46 20.7533C299.067 20.9638 298.679 21.2258 298.295 21.5299V30.6992H294.852V20.5896C294.852 20.2106 294.81 19.9112 294.73 19.6914C294.651 19.4715 294.506 19.2469 294.305 19.013C294.159 18.854 294.117 18.7043 294.183 18.5733C294.248 18.4423 294.361 18.3768 294.524 18.3768H298.187V19.6072C298.538 19.1534 299.006 18.7651 299.591 18.4423C300.176 18.1195 300.817 17.9604 301.523 17.9604V17.9557Z" fill="#0046FF"/>
<path d="M318.107 25.4129C318.182 26.559 318.5 27.4058 319.071 27.9391C319.642 28.4771 320.451 28.7438 321.503 28.7438C322.088 28.7438 322.687 28.6829 323.305 28.5566C323.917 28.4303 324.53 28.1871 325.148 27.8222L325.672 29.3145C325.733 29.5203 325.648 29.7262 325.419 29.9414C325.19 30.1519 324.858 30.3437 324.423 30.5121C323.983 30.6805 323.464 30.8209 322.865 30.9285C322.266 31.0361 321.634 31.0922 320.98 31.0922C320.133 31.0922 319.323 30.9659 318.556 30.718C317.789 30.47 317.115 30.0817 316.54 29.5531C315.965 29.0245 315.501 28.3555 315.16 27.5368C314.818 26.7181 314.645 25.731 314.645 24.5755C314.645 23.7568 314.767 22.9521 315.005 22.1615C315.249 21.3709 315.618 20.6645 316.124 20.033C316.629 19.4061 317.265 18.9008 318.032 18.5172C318.8 18.1383 319.702 17.9465 320.741 17.9465C321.677 17.9465 322.505 18.1149 323.22 18.4517C323.936 18.7885 324.544 19.2517 325.04 19.8365C325.536 20.4212 325.915 21.1183 326.168 21.9136C326.425 22.7136 326.551 23.5697 326.551 24.4772V25.4035H318.102L318.107 25.4129ZM323.089 23.1112C323.061 22.7463 322.996 22.3908 322.902 22.0493C322.809 21.7077 322.668 21.4083 322.486 21.1604C322.303 20.9125 322.07 20.7113 321.784 20.5569C321.499 20.4025 321.153 20.3277 320.741 20.3277C320.329 20.3277 319.964 20.4025 319.646 20.5569C319.323 20.7113 319.052 20.9171 318.837 21.1838C318.617 21.4458 318.444 21.7452 318.322 22.082C318.196 22.4188 318.131 22.7603 318.112 23.1112H323.094H323.089Z" fill="#0046FF"/>
<path d="M332.062 18.3721V19.5791C332.516 19.1393 333.021 18.7604 333.587 18.4376C334.148 18.1148 334.817 17.9557 335.594 17.9557C336.254 17.9557 336.862 18.0493 337.414 18.2318C337.97 18.4142 338.457 18.6809 338.873 19.0317C339.29 19.3826 339.617 19.8177 339.851 20.337C340.085 20.8562 340.202 21.4504 340.202 22.124V30.7039H336.759V22.4281C336.759 21.7264 336.6 21.2165 336.286 20.903C335.973 20.5896 335.463 20.4305 334.761 20.4305C334.279 20.4305 333.826 20.5241 333.4 20.7159C332.974 20.9077 332.567 21.179 332.17 21.5252V30.6945H328.726V20.5896C328.726 20.2106 328.684 19.9112 328.605 19.6914C328.525 19.4715 328.38 19.2469 328.179 19.013C328.034 18.854 327.992 18.7043 328.057 18.5733C328.123 18.4423 328.235 18.3768 328.399 18.3768H332.062V18.3721Z" fill="#0046FF"/>
<path d="M347.524 14.4472V18.3722H350.419V20.7862H347.524V27.6959C347.524 28.1216 347.636 28.3882 347.851 28.5052C348.071 28.6222 348.328 28.683 348.618 28.683C348.908 28.683 349.231 28.6268 349.573 28.5192C349.919 28.407 350.256 28.276 350.592 28.1122L350.985 29.9133C351.028 30.1051 350.911 30.2736 350.635 30.4279C350.359 30.5823 350.003 30.718 349.582 30.8349C349.245 30.9238 348.904 30.9893 348.562 31.0314C348.216 31.0735 347.818 31.0969 347.369 31.0969C346.405 31.0969 345.615 30.8583 344.997 30.3858C344.384 29.9087 344.076 29.1929 344.076 28.2245V20.7862H341.994V18.3722H344.076V14.4472H347.519H347.524Z" fill="#0046FF"/>
<path d="M22.9216 8C15.2306 8 8.99927 14.2314 8.99927 21.9223C8.99927 29.6133 15.2306 35.8447 22.9216 35.8447C30.6126 35.8447 36.8439 29.6133 36.8439 21.9223C36.8439 14.2314 30.6126 8 22.9216 8ZM23.2116 33.295C21.5462 33.529 18.8328 33.1079 16.999 31.9477C15.3897 30.9325 14.4307 29.6601 13.8085 28.3689C13.1722 27.0496 12.8728 25.4497 13.5512 25.5292C13.8693 25.5667 14.1406 26.1655 14.7535 26.9467C15.1698 27.48 15.5581 27.9291 15.8482 27.9946C15.9791 28.0227 16.0867 27.9619 16.1756 27.7888C16.3487 27.4566 16.5826 26.8298 16.999 26.3198C17.3358 25.9316 17.7428 25.7491 17.9814 26.6988C18.0937 27.1713 18.1873 27.6625 18.2387 28.0882C18.3136 28.6917 18.351 29.0519 18.5615 29.1502C18.7627 29.2484 19.0995 29.1221 19.6515 28.9162C20.0445 28.7712 20.5497 28.5841 21.1907 28.4016C21.7801 28.2332 22.1544 28.3221 21.7754 29.2344C21.5977 29.6648 21.4152 30.0297 20.779 30.9466C20.6667 31.1056 20.6901 31.2694 20.8258 31.405C21.041 31.6156 21.5228 31.8729 22.0561 32.1068C22.4818 32.2892 22.9871 32.453 23.3239 32.5465C23.8479 32.6962 23.745 33.2249 23.2163 33.2997L23.2116 33.295ZM30.3553 30.301C29.836 31.1431 28.7506 32.0553 27.4314 32.6635C27.2302 32.7524 27.0197 32.7243 26.9636 32.5606C26.9168 32.4202 27.0291 32.2565 27.16 32.1021C28.877 29.8753 27.5998 27.8356 24.8303 26.2497C22.7813 25.0801 21.4807 24.4065 19.9697 23.5176C15.5441 20.9118 14.688 18.6429 14.5149 17.2956C14.0798 13.9039 16.8867 11.3589 19.7685 10.7461C19.8574 10.7274 20.0866 10.69 20.1615 10.8818C20.2363 11.0736 20.0632 11.2139 19.965 11.2747C18.6738 11.9858 17.406 13.4922 17.5463 15.167C17.6212 16.1026 18.0235 17.45 20.5591 19.2558C22.0889 20.3458 23.9602 21.2393 27.7355 23.5036C31.726 25.8941 31.2722 28.8133 30.3553 30.2963V30.301ZM30.9775 17.5669C30.0652 18.6803 29.1576 18.2687 28.4559 16.6968C28.0208 15.719 27.4454 15.4804 27.0384 15.7377C26.594 16.0184 26.7718 16.6874 27.2676 17.4593C27.5904 17.9646 27.4454 18.5587 27.1086 18.9096C26.753 19.2791 26.1776 19.4242 25.5461 19.2885C24.4233 19.0406 23.3192 17.5389 24.1239 14.2548C24.4514 12.9308 23.8151 12.3648 23.4128 11.8548C23.2116 11.6022 23.1883 11.4478 23.2584 11.3449C23.338 11.2326 23.5251 11.2233 23.8526 11.2935C24.283 11.3823 24.9239 11.6069 25.4478 11.6864C25.794 11.7426 26.187 11.7566 26.5987 11.7379C27.7168 11.6958 28.5448 11.8689 29.3869 12.2852C30.8184 12.9963 30.9634 14.2173 30.1681 14.1191C29.8921 14.0863 29.5366 13.8758 29.2419 13.7355C29.0454 13.6419 28.877 13.6092 28.7506 13.6981C28.6337 13.7823 28.5822 13.96 28.6664 14.1378C28.8442 14.5121 29.4477 14.7039 30.2617 14.9331C31.6886 15.3261 31.7166 16.65 30.9728 17.5669H30.9775Z" fill="#0046FF"/>
<path d="M23.2115 33.2952C21.546 33.5291 18.8327 33.1081 16.9988 31.9479C15.3895 30.9327 14.4305 29.6602 13.8083 28.3691C13.1721 27.0498 12.8727 25.4499 13.551 25.5294C13.8691 25.5668 14.1404 26.1656 14.7533 26.9469C15.1697 27.4802 15.5579 27.9293 15.848 27.9948C15.979 28.0229 16.0866 27.9621 16.1755 27.789C16.3486 27.4568 16.5825 26.8299 16.9988 26.32C17.3357 25.9317 17.7427 25.7493 17.9813 26.6989C18.0935 27.1714 18.1871 27.6626 18.2386 28.0884C18.3134 28.6918 18.3508 29.0521 18.5613 29.1503C18.7625 29.2486 19.0993 29.1222 19.6514 28.9164C20.0443 28.7714 20.5496 28.5843 21.1905 28.4018C21.78 28.2334 22.1542 28.3223 21.7753 29.2345C21.5975 29.6649 21.4151 30.0298 20.7788 30.9467C20.6665 31.1105 20.6899 31.2695 20.8256 31.4052C21.0408 31.6157 21.5227 31.873 22.056 32.1069C22.4817 32.2894 22.9869 32.4531 23.3238 32.5467C23.8477 32.6964 23.7448 33.225 23.2162 33.2999L23.2115 33.2952ZM30.3551 30.3012C29.8358 31.1432 28.7505 32.0555 27.4312 32.6636C27.2301 32.7525 27.0195 32.7245 26.9634 32.5607C26.9166 32.4204 27.0289 32.2566 27.1599 32.1023C28.8768 29.8754 27.5996 27.8357 24.8301 26.2498C22.7811 25.0803 21.4805 24.4066 19.9695 23.5178C15.5439 20.912 14.6878 18.6431 14.5147 17.2957C14.0796 13.9041 16.8866 11.3591 19.7683 10.7463C19.8572 10.7276 20.0864 10.6901 20.1613 10.8819C20.2361 11.0737 20.0631 11.2141 19.9648 11.2749C18.6736 11.986 17.4058 13.4924 17.5462 15.1672C17.621 16.1028 18.0234 17.4501 20.5589 19.2559C22.0887 20.3459 23.96 21.2395 27.7353 23.5037C31.7258 25.8943 31.272 28.8135 30.3551 30.2965V30.3012ZM30.9773 17.5671C30.065 18.6805 29.1575 18.2688 28.4557 16.6969C28.0207 15.7192 27.4453 15.4806 27.0383 15.7379C26.5938 16.0186 26.7716 16.6876 27.2675 17.4595C27.5903 17.9647 27.4453 18.5589 27.1084 18.9097C26.7529 19.2793 26.1775 19.4243 25.5459 19.2887C24.4231 19.0407 23.3191 17.539 24.1237 14.2549C24.4512 12.931 23.815 12.3649 23.408 11.855C23.2068 11.6024 23.1834 11.448 23.2536 11.3451C23.3331 11.2328 23.5202 11.2234 23.8477 11.2936C24.2781 11.3825 24.919 11.6071 25.443 11.6866C25.7892 11.7427 26.1821 11.7568 26.5938 11.738C27.7119 11.6959 28.54 11.869 29.382 12.2854C30.8136 12.9965 30.9586 14.2175 30.1633 14.1192C29.8873 14.0865 29.5317 13.876 29.237 13.7356C29.0405 13.6421 28.8721 13.6093 28.7458 13.6982C28.6288 13.7824 28.5774 13.9602 28.6616 14.138C28.8394 14.5122 29.4428 14.704 30.2569 14.9333C31.6837 15.3262 31.7118 16.6502 30.9679 17.5671H30.9773Z" fill="white"/>
</g>
<defs>
<clipPath id="clip0_3721_101113">
<rect width="342" height="29.9171" fill="white" transform="translate(9 8)"/>
</clipPath>
</defs>
</svg>
